<?xml version="1.0" encoding="utf-8"?>
<!-- Generator: Adobe Illustrator 22.0.1, SVG Export Plug-In . SVG Version: 6.00 Build 0)  -->
<svg version="1.1" id="Layer_1" xmlns="http://www.w3.org/2000/svg" xmlns:xlink="http://www.w3.org/1999/xlink" x="0px" y="0px"
	 viewBox="0 0 151.3 134.9" style="enable-background:new 0 0 151.3 134.9;" xml:space="preserve">
<style type="text/css">
	.st0{fill-rule:evenodd;clip-rule:evenodd;fill:#E58833;}
	.st1{fill-rule:evenodd;clip-rule:evenodd;fill:#4E201B;}
	.st2{fill:#A03C3C;}
	.st3{fill:#E43A38;}
	.st4{fill:#D8A32E;}
	.st5{fill:#E9B631;}
	.st6{fill:#6A932F;}
	.st7{fill:#79A93C;}
	.st8{fill:#E58833;}
	.st9{opacity:0.56;fill:#BC6430;}
	.st10{opacity:0.64;fill:#F2B96A;}
</style>
<path class="st0" d="M28,87.1c0,0-0.2,4.1,0.2,6.5s11.1,21.7,47.7,20.8s46.2-20.8,46.2-21.7s0-7.6,0-7.6L28,87.1z"/>
<ellipse class="st1" cx="74.9" cy="78.2" rx="49.5" ry="25.5"/>
<circle class="st2" cx="49.9" cy="69.1" r="22.5"/>
<circle class="st3" cx="50.5" cy="67.4" r="22.5"/>
<circle class="st2" cx="75.5" cy="72.4" r="17.8"/>
<circle class="st3" cx="75.3" cy="71.2" r="17.8"/>
<circle class="st2" cx="102.5" cy="68.9" r="22.1"/>
<circle class="st3" cx="101.5" cy="67.6" r="22.1"/>
<path class="st4" d="M85.5,69.8c0,0-19,13.1-19.4,17.4c0,0-39.3-14.6-46.7-14.8l19.1-12.8L85.5,69.8z"/>
<path class="st5" d="M85.2,68.7c0,0-19.1,12.8-19.5,17.1c0,0-39.2-14.5-46.6-13.4l19.1-13.9L85.2,68.7z"/>
<path class="st4" d="M71.6,70.4c0,0,15,13.7,16,17.1c0,0,38.8-18.7,44.3-20.6l-19.3-13.8L71.6,70.4z"/>
<path class="st5" d="M72,69.2c0,0,15,13.7,16,17.1c0,0,38.4-19.3,43.8-19.5l-18.9-15L72,69.2z"/>
<path class="st6" d="M125.1,51.1l6.7,2.2c0,0-4.1,2.4,0.2,3.9c4.3,1.5,1.5,3,2.2,5.2c0.7,2.2-0.9-0.9-3,0s-11.7-4.8-13.4,4.1
	c0,0-4.6-1.3-4.3,2c0,0-3.3,3.3-8.2,1.3s-4.3-0.7-9.1,1.3c-4.8,2-4.8,1.1-11.3,0.7s-8.9-0.7-8,1.3c0,0-3.3-2-3.7,0.9
	c0,0-1.1,3-6.1,1.3s-5-1.1-6.1,0s-4.1-5-7.4-2.8s-2.8,2.8-9.5,0.4s3.7-5-3.7-5.4s-9.8,3-12.1-0.4c-2.4-3.5-3-3.7-6.3-4.1
	s-2.9-1-1.7-4.6c0.2-0.7,12.8-9.5,12.8-9.5L125.1,51.1z"/>
<path class="st7" d="M125,50.1l6.7,2.2c0,0-4.1,2.4,0.2,3.9s1.5,3,2.2,5.2s-0.9-0.9-3,0s-11.7-4.8-13.4,4.1c0,0-4.6-1.3-4.3,2
	c0,0-3.3,3.3-8.2,1.3s-4.3-0.7-9.1,1.3s-4.8,1.1-11.3,0.7s-8.9-0.7-8,1.3c0,0-3.3-2-3.7,0.9c0,0-1.1,3-6.1,1.3s-5-1.1-6.1,0
	s-4.1-5-7.4-2.8s-2.8,2.8-9.5,0.4s3.7-5-3.7-5.4s-9.8,3-12.1-0.4s-3-3.7-6.3-4.1s-2.9-1-1.7-4.6c0.2-0.7,12.8-9.5,12.8-9.5L125,50.1
	z"/>
<path class="st8" d="M77.1,12.7c31.3,1.4,43.5,27.2,46.8,35.7c0.7,1.9,0.3,3.9-1,5.4c-4.1,4.7-15.9,13.8-45.8,14.6
	C37,69.6,27.7,56.1,26.3,52.3C22.8,43,43.4,11.1,77.1,12.7z"/>
<path class="st9" d="M115.6,48.7c0,0-14,9.1-16.2,5.2c-2.1-3.9,11.8-21.5-9-33.2c-0.6-0.3-1.1-0.8-1.5-1.4c-1-1.6-0.7-3.6,3.9-2.1
	c5.6,1.9,17.2,13,20.5,19.8S118.2,47.2,115.6,48.7z"/>
<path class="st10" d="M73.2,60.5c0,0-0.3-3.9-8.8-3.8c-8.5,0.1-24.3-5.1-26.7-6.8c-2.5-1.7-6.6-4.2-8.1-1.7c-1.4,2.5-1.3,5.9,7.5,10
	s21.5,6.4,28.8,6.1C73.1,64,73.7,61.5,73.2,60.5z"/>
</svg>
