<?xml version="1.0" encoding="utf-8"?>
<!-- Generator: Adobe Illustrator 22.0.1, SVG Export Plug-In . SVG Version: 6.00 Build 0)  -->
<svg version="1.1" id="Layer_1" xmlns="http://www.w3.org/2000/svg" xmlns:xlink="http://www.w3.org/1999/xlink" x="0px" y="0px"
	 viewBox="0 0 154 124.3" style="enable-background:new 0 0 154 124.3;" xml:space="preserve">
<style type="text/css">
	.st0{fill:#CE843D;}
	.st1{fill:none;stroke:#E18A32;stroke-miterlimit:10;}
	.st2{opacity:0.56;fill:#BC6430;}
	.st3{fill:#39251B;}
	.st4{fill:#50362D;}
	.st5{fill:#B27039;}
	.st6{fill:#3A2518;}
	.st7{fill:#664942;}
</style>
<g>
	<path class="st0" d="M139.3,67.7c0,0,0,36.3-59.2,35.9C21,103.1,18.7,61.7,18.7,61.7l27.8-9.9c0,0,56.5,0.2,57.1,0
		s26.7-1.3,28.2,0.7C133.5,54.5,139.3,67.7,139.3,67.7z"/>
	<path class="st1" d="M156.4,79.5"/>
	<path class="st2" d="M139.3,67.7c0,0,0.3,27.8-39.9,33.9s-33.8-7.2-24.6-6.4c9.2,0.8,41.8-3.5,50.8-12.5s9.2-20.7,9.2-20.7
		L139.3,67.7z"/>
	<path class="st3" d="M34.2,23.6c0,0-17.9,7.8-16.6,28.2s2.7,12.1,8.1,12.5c5.4,0.4,5.2,15.7,10.8,15.5c5.6-0.2,6.7-11.9,13.7-11.9
		s11,11.2,16.6,8.3c5.6-2.9,9.2-9.6,15-6.9c5.8,2.7,11.2,22.6,15.9,21.1s6.5-23.5,12.1-20.6c5.6,2.9,5.8,7.8,11,5.6
		c5.2-2.2,7.8-17,11-13.2s5.6,12.3,7.6,5.6s1.3-33.8-8.1-40.1S34.2,23.6,34.2,23.6z"/>
	<path class="st4" d="M135.4,37.4c0,14.3-24.5,25.9-54.7,25.9S21.9,52.4,21.9,38.1s28.6-26.7,58.8-26.7S135.4,23.1,135.4,37.4z"/>
	<ellipse class="st5" cx="79" cy="36.6" rx="19" ry="11.2"/>
	<path class="st6" d="M61.8,29.9c-2,1.7-3,4.4-2.3,7c0.4,1.4,1.1,2.4,2.6,1.1c3.2-2.7,3-6,8.9-2.5c6,3.4,3.2-2.5,7.3-3.7
		c4.1-1.1,1.6,5.3,7.6,4.1s7.3-5,9.4-1.4c2.1,3.7,2.3-1.4,2.3-1.4s-2.2-7.9-19-9.1C78.6,24,69.1,23.6,61.8,29.9z"/>
	<path class="st7" d="M63.3,61.9c0,0-40.7-4.9-41.5-23.8c0.2-1.9,2.3-3.9,4.8,0.2s6.9,14.1,35.1,19.5c2.6,0.4,4.8,1.1,4.2,2.7
		C65.3,62,63.3,61.9,63.3,61.9z"/>
</g>
</svg>
