<?xml version="1.0" encoding="utf-8"?>
<!-- Generator: Adobe Illustrator 22.0.1, SVG Export Plug-In . SVG Version: 6.00 Build 0)  -->
<svg version="1.1" id="Layer_1" xmlns="http://www.w3.org/2000/svg" xmlns:xlink="http://www.w3.org/1999/xlink" x="0px" y="0px"
	 viewBox="0 0 198.6 153.5" style="enable-background:new 0 0 198.6 153.5;" xml:space="preserve">
<style type="text/css">
	.st0{fill:#D38643;}
	.st1{fill:#A4502E;}
	.st2{opacity:0.51;fill:#701F0A;}
	.st3{opacity:0.84;fill:#E18A32;}
	.st4{opacity:0.56;fill:#BC6430;}
	.st5{fill:#E8B84D;}
	.st6{fill:#F4C85B;}
</style>
<path class="st0" d="M44.1,71.9c0,0-2-10.7,11.2-11.8c13.2-1.2,50-8.3,63.3-18.8s18.3,2.2,18.3,2.2l-10,9.2L49.8,76.1L44.1,71.9z"/>
<path class="st1" d="M47.4,97.9c0,0-10.9,0.9-11.9-12.1s13.2-15.2,17.2-15.5c4-0.3,61-8.7,83.7-28.7c4.8-4.5,8.7-9.5,9.5-10.3
	c0.8-0.8,6.8-8.2,16,2.7c9.2,10.8-24.2,33-24.2,33S71.6,102.1,47.4,97.9z"/>
<path class="st2" d="M47.4,97.9c0,0-0.6-20.2,28.4-21.8s58.3-19.3,59.7-20.8c1.3-1.5,24.8-15.7,26.3-21.3c0,0,2,1.8,1.2,6.3
	c-0.8,4.5-6.3,10.7-6.3,10.7l-43.7,26L54.6,98.4L47.4,97.9z"/>
<path class="st0" d="M131.6,61.6c0,0-30.2,18.8-50.8,16.8s-31,12.7-28,19.7l-5.4-0.2c0,0,11,28.2,82,3.5c9.2-5.5,36-15.8,32-44
	c-0.5-4.8-4.5-14.8-15.2-6.8S133.6,60.4,131.6,61.6z"/>
<path class="st3" d="M136.3,58.9c0,0,15.8,2.8,3,23s-77,32.5-86.5,16.2c0.5-5.2-1.2-14.8,19.8-19.5c2.5,0,6.8-0.8,8.9-0.2
	c2.1,0.6,16.5-1.1,19.1-2.8S123,69.7,136.3,58.9z"/>
<path class="st4" d="M161.4,57.4c0,0-2.9-2.2-4.6,5.8c-1.7,8-5.5,24.7-33.5,36.3c-2.5,1-2.7,3.3-1.9,4.6c0,0,8.5-1.9,14.3-5.7
	c10.3-6.8,18.2-12.1,21.5-19C157.4,78.9,163.5,70.2,161.4,57.4z"/>
<g>
	<path class="st5" d="M48,75.2c0.9-1.3,2.1-2.3,3.5-3c0.7-0.3,1.5-0.6,2.2-0.8c0.4-0.1,0.8-0.2,1.2-0.2c0.4,0,0.9,0.1,1.3,0.2
		c1.7,0.5,2.9,1.7,4,2.7c1.1,1.1,2.1,2.2,3.1,2.9c0.5,0.3,1,0.5,1.4,0.4c0.5-0.1,0.9-0.4,1.3-0.9c0.8-1,1.3-2.4,1.9-3.7
		c0.6-1.4,1.2-2.9,2.3-4.3c0.6-0.7,1.4-1.3,2.3-1.7c0.9-0.3,2-0.4,3-0.2c1.9,0.5,3.2,1.6,4.4,2.5c1.2,1,2.3,1.9,3.4,2.5
		c0.5,0.3,1,0.3,1.3,0.3c0.4-0.1,0.6-0.2,0.8-0.6c0.5-0.8,0.8-2.3,1.3-3.9c0.3-0.8,0.6-1.7,1.2-2.4c0.6-0.8,1.4-1.5,2.3-1.9
		c0.9-0.4,1.9-0.6,2.9-0.6c0.9,0,1.8,0.2,2.6,0.4c1.6,0.4,3.1,1.1,4.4,1.6c1.4,0.6,2.7,1.1,4,1.3c1.3,0.2,2.3,0.1,3.1-0.5
		c0.8-0.5,1.2-1.6,1.6-2.9c0.4-1.3,0.5-3,1.5-4.7c0.5-0.8,1.3-1.6,2.2-2.1c0.9-0.5,1.9-0.7,2.9-0.7c2,0,3.5,0.7,4.9,1.3
		c1.4,0.6,2.7,1.3,3.9,1.6c1.2,0.3,2.1,0.1,2.6-0.6c0.6-0.7,0.7-2.2,0.8-3.6c0.1-1.5,0.2-3.1,0.9-4.8c0.4-0.8,1-1.6,1.8-2.2
		c0.8-0.5,1.7-0.8,2.6-0.9c1.8-0.1,3.3,0.4,4.8,0.8c1.4,0.4,2.8,0.9,4.2,0.8c0.7,0,1.3-0.1,1.9-0.4c0.6-0.2,1-0.7,1.4-1.2
		c0.8-1.1,1.2-2.5,1.5-4c0.6-2.9,0.6-5.9,0.5-8.9c0.4,3,0.7,6,0.3,9.1c-0.2,1.5-0.5,3.1-1.4,4.5c-0.4,0.7-1,1.4-1.8,1.8
		c-0.7,0.4-1.6,0.7-2.4,0.7c-1.7,0.1-3.2-0.3-4.7-0.6c-1.5-0.3-2.9-0.7-4.1-0.5c-0.6,0.1-1.1,0.3-1.6,0.6c-0.4,0.3-0.8,0.7-1,1.3
		c-0.4,1.1-0.5,2.5-0.5,4c0,0.8-0.1,1.6-0.2,2.4c-0.1,0.8-0.4,1.8-1,2.6c-0.6,0.9-1.5,1.6-2.6,1.8c-1,0.3-2.1,0.2-2.9,0
		c-1.7-0.4-3.1-1.1-4.4-1.7c-1.3-0.6-2.6-1-3.7-1c-1.1,0-1.9,0.5-2.4,1.4c-0.5,0.9-0.8,2.3-1.1,3.9c-0.2,0.8-0.4,1.6-0.8,2.5
		c-0.4,0.8-1.1,1.7-1.9,2.3c-0.8,0.6-1.8,1-2.8,1.1c-1,0.2-1.9,0.1-2.8-0.1c-1.7-0.3-3.2-0.9-4.6-1.5c-1.4-0.6-2.7-1.2-4-1.5
		c-2.6-0.7-4.5,0-5.3,2.5c-0.2,0.6-0.4,1.3-0.6,2.1c-0.2,0.8-0.5,1.6-1.1,2.5c-0.3,0.4-0.7,0.9-1.2,1.2c-0.5,0.3-1,0.5-1.6,0.6
		c-1.2,0.2-2.3-0.2-3.1-0.6c-1.6-0.9-2.7-2-3.8-2.9c-1.1-0.9-2.2-1.8-3.3-2.1c-1-0.3-2,0-2.8,0.9c-0.8,0.9-1.5,2.2-2.1,3.6
		c-0.7,1.3-1.2,2.8-2.4,4.2c-0.6,0.7-1.4,1.3-2.5,1.5c-0.5,0.1-1.1,0-1.6-0.1c-0.5-0.2-0.9-0.4-1.2-0.6c-1.4-1-2.3-2.3-3.3-3.4
		c-1-1.1-2-2.1-3.2-2.6c-0.6-0.2-1.2-0.2-1.9-0.1c-0.7,0.1-1.4,0.3-2.1,0.5c-1.3,0.5-2.6,1.3-3.5,2.4l0,0c-0.1,0.1-0.3,0.1-0.4,0
		C47.9,75.5,47.9,75.3,48,75.2z"/>
</g>
<g>
	<path class="st6" d="M47.7,75.1c1.6-2.6,4.4-4.8,7.9-4.6c0.9,0.1,1.7,0.5,2.4,0.9c0.7,0.5,1.3,1,1.8,1.5c1.1,1.1,2.1,2.3,3.1,2.7
		c0.5,0.2,0.9,0.2,1.4,0c0.4-0.2,0.8-0.6,1.2-1.2c0.7-1.1,1.2-2.5,1.8-3.9c0.6-1.4,1.2-2.9,2.6-4.2c0.6-0.7,1.6-1.2,2.5-1.4
		c1-0.2,2-0.1,2.9,0.2c1.7,0.6,3,1.7,4.2,2.6c1.2,0.9,2.3,1.9,3.3,2.3c0.5,0.2,0.8,0.1,1.2,0c0.3-0.1,0.5-0.3,0.8-0.8
		c0.5-1,0.7-2.6,1.3-4.2c0.3-0.8,0.8-1.7,1.5-2.4c0.3-0.4,0.7-0.7,1.1-1c0.4-0.3,0.9-0.5,1.3-0.7c0.5-0.1,1-0.2,1.4-0.3
		c0.5,0,1,0,1.4,0c0.4,0.1,0.9,0.1,1.3,0.2c0.4,0.1,0.8,0.2,1.2,0.3c1.6,0.5,3,1.1,4.3,1.6c1.4,0.5,2.7,1,3.9,1.2
		c1.2,0.2,2.2-0.1,2.9-0.7c0.7-0.6,1.1-1.7,1.4-3.2c0.2-0.7,0.3-1.5,0.6-2.3c0.2-0.8,0.6-1.7,1.2-2.5c1.2-1.7,3.4-2.5,5.3-2.3
		c1.9,0.2,3.4,0.9,4.8,1.5c1.4,0.6,2.7,1.3,3.8,1.5c0.6,0.1,1.1,0.1,1.5-0.1c0.4-0.1,0.7-0.4,1-0.9c0.3-0.4,0.4-1,0.5-1.7
		c0.1-0.7,0.2-1.4,0.2-2.1c0.1-1.5,0.2-3.2,1.1-4.9c0.9-1.7,3-2.7,4.8-2.5c1.8,0.1,3.2,0.7,4.6,1.2c1.4,0.5,2.8,1,4.1,1.2
		c0.3,0,0.7,0,1,0c0.3-0.1,0.6-0.1,0.9-0.2c0.6-0.2,1.1-0.6,1.6-1.1c0.9-1,1.4-2.4,1.7-3.8c0.7-2.9,0.7-5.9,0.6-8.9
		c0.4,3,0.7,6,0.2,9c-0.2,1.5-0.6,3.1-1.7,4.4c-1,1.4-2.9,2.1-4.5,2c-1.7-0.1-3.2-0.6-4.6-1c-1.4-0.4-2.8-0.9-4.1-0.8
		c-0.6,0-1.2,0.1-1.6,0.4c-0.5,0.2-0.8,0.7-1.1,1.1c-0.5,1-0.6,2.4-0.6,3.9c0,0.8,0,1.5-0.1,2.3c-0.1,0.8-0.3,1.7-0.7,2.6
		c-0.5,0.9-1.3,1.7-2.3,2.1c-1,0.4-2.1,0.5-3,0.3c-1.8-0.3-3.2-1-4.6-1.6c-1.3-0.6-2.7-1.1-3.8-1.1c-0.3,0-0.6,0-0.8,0l-0.4,0.1
		c-0.1,0.1-0.2,0.1-0.3,0.1c-0.5,0.2-0.8,0.5-1.1,0.9c-0.6,0.8-0.8,2.2-1.2,3.7c-0.2,0.8-0.4,1.6-0.7,2.4c-0.4,0.8-0.9,1.7-1.6,2.4
		c-0.8,0.7-1.7,1.2-2.6,1.4c-0.5,0.1-1,0.2-1.4,0.2c-0.5,0-0.9,0-1.4-0.1c-1.8-0.2-3.3-0.8-4.7-1.4c-1.4-0.6-2.8-1.2-4.1-1.6
		c-1.3-0.4-2.5-0.5-3.5-0.2c-1,0.3-1.7,1.1-2.1,2.2c-0.2,0.6-0.4,1.2-0.6,2c-0.2,0.7-0.4,1.5-0.9,2.4c-0.2,0.4-0.5,0.9-0.9,1.3
		c-0.2,0.2-0.5,0.4-0.7,0.5c-0.2,0.2-0.5,0.3-0.8,0.4c-1.1,0.4-2.3,0.3-3.2-0.1C80,72.1,78.9,71,77.8,70c-1.1-1-2.2-1.9-3.3-2.3
		c-0.5-0.2-1-0.3-1.5-0.2c-0.5,0.1-0.9,0.3-1.3,0.7c-0.9,0.8-1.5,2-2.2,3.3c-0.7,1.3-1.2,2.7-2.2,4.1c-0.5,0.7-1.2,1.4-2.1,1.8
		c-0.5,0.1-1,0.3-1.5,0.2c-0.3,0-0.5-0.1-0.8-0.1c-0.3-0.1-0.5-0.1-0.7-0.3c-0.8-0.4-1.5-1-2-1.6c-0.5-0.6-1-1.2-1.5-1.7
		c-1-1.1-2-2-3.2-2.3c-0.2,0-0.3-0.1-0.5-0.1c-0.2,0-0.3,0-0.5,0c-0.3,0-0.7,0.1-1,0.2c-0.7,0.2-1.3,0.4-2,0.7
		c-1.3,0.7-2.4,1.6-3.3,2.8l0,0c-0.1,0.1-0.3,0.1-0.4,0.1C47.7,75.4,47.7,75.2,47.7,75.1z"/>
</g>
</svg>
