<?xml version="1.0" encoding="utf-8"?>
<!-- Generator: Adobe Illustrator 22.0.1, SVG Export Plug-In . SVG Version: 6.00 Build 0)  -->
<svg version="1.1" id="Layer_1" xmlns="http://www.w3.org/2000/svg" xmlns:xlink="http://www.w3.org/1999/xlink" x="0px" y="0px"
	 viewBox="0 0 103 172.4" style="enable-background:new 0 0 103 172.4;" xml:space="preserve">
<style type="text/css">
	.st0{fill:#E6B982;stroke:#D1A16D;stroke-width:2;stroke-miterlimit:10;}
	.st1{fill:#EBE6DC;stroke:#DDD3C3;stroke-miterlimit:10;}
	.st2{fill:#DDD3C3;stroke:#DDD3C3;stroke-miterlimit:10;}
	.st3{fill:#EBE6DC;}
	.st4{fill:none;stroke:#E5E5E5;stroke-miterlimit:10;}
	.st5{fill:#DDD3C3;stroke:#EBE6DC;stroke-width:2;stroke-miterlimit:10;}
	.st6{fill:none;stroke:#D1A16D;stroke-linecap:round;stroke-miterlimit:10;}
</style>
<g>
	<path class="st0" d="M27.5,95.4c0,0-0.7,14.7,10.3,18.2l28.7-0.6c0,0,11.3-5.6,10-22.1L27.5,95.4z"/>
	<path class="st1" d="M74.4,80.2c0.4-0.5,1.1-0.2,1.1,0.4c-0.6,4.5-4,14.5-21.7,17.1c-22,3.3-26.1-0.6-26.3-3.4
		c0-0.2,0.1-0.5,0.3-0.6c1.2-0.6,5.2-2.2,9.9-0.3C43.2,95.8,63.9,95.1,74.4,80.2z"/>
	<path class="st2" d="M67.9,92.4c-0.6,0.4-0.1,1.3,0.6,1c3.6-1.6,7.8-5,8.2-11.6c0.1-1.6-0.1-3-0.4-4.1c-0.1-0.6-0.9-0.6-1.1-0.1
		l-0.3,0.7c0,0.1-0.1,0.2-0.1,0.3C74.9,79.8,75.2,87.1,67.9,92.4z"/>
	<path class="st3" d="M68.8,92.9c-0.6,0.3-0.3,1.2,0.4,1.1c3.1-0.5,7.7-2.2,8.9-8.2c1.2-5.6,0.1-8.3-0.9-9.5c-0.4-0.5-1.2-0.1-1,0.5
		C76.7,80.2,77.3,88.3,68.8,92.9z"/>
	<path class="st2" d="M27.3,93.9L25.2,93c-0.4-0.2-0.5-0.8-0.1-1.1c1.9-1.1,6.7-3.2,12.6-1.3c7.8,2.6,19.5,3.8,29.2-3.5
		c0,0-11.2,10.4-29.1,6.4c0,0-0.1,0-0.1,0c-0.5-0.2-5-2.1-10,0.3C27.6,94,27.4,94,27.3,93.9z"/>
	<path class="st1" d="M24,91.9c-0.4-1.7-1.2-5.9,1.3-8.2c0.1-0.1,0.3-0.2,0.5-0.1c3.7,0.9,41.5,9.6,46.5-16.9
		c0.1-0.4,0.5-0.6,0.8-0.4c1.6,0.7,5.5,2.9,3.7,9.2c0,0,0,0.1,0,0.1c-0.4,0.8-6.4,13.3-18.4,16.1c-5.8,1.2-12.1,1.3-18.2,0
		c-5.9-1.3-6.8-3.5-15.4,0.7C24.5,92.5,24.1,92.3,24,91.9z"/>
	<path class="st2" d="M72.7,68.2c0.6,1.2,3,9.5-10.7,17.9c-0.6,0.4-0.1,1.4,0.6,1c5.6-2.9,12.1-8.5,13-18.7c0-0.1,0-0.3-0.1-0.4
		c-0.3-0.4-1-1.1-2.3-1.7c-0.4-0.2-0.8,0.1-0.8,0.4l-0.2,1l0.3,0.2C72.5,68,72.6,68.1,72.7,68.2z"/>
	<path class="st1" d="M25.5,83.5c-0.5-0.1-1.2-1.1-1.8-2c-0.3-0.4,0.1-1,0.6-0.9c4.8,1,21.2,3.2,33.3-7.7
		C70,61.8,68.3,56.5,67.7,55.3c-0.1-0.2-0.1-0.4,0-0.6l0.8-1.4c0.2-0.3,0.5-0.4,0.8-0.2c1.7,1,6.6,4.9,3.1,12.7c0,0.1,0,0.1,0,0.2
		c-0.1,1.3-1,14.1-18.2,18.2C46.1,86,38.8,86.4,25.5,83.5z"/>
	<path class="st1" d="M24.3,79.6l4.4-2.4c0.1,0,0.1-0.1,0.2-0.1C31,77,61.1,74,67.1,56.4c0.2-0.6,1-0.5,1.1,0.1
		c0.3,1.9-0.7,6.2-8.7,14.7c-11.2,12-29.1,10.7-35.2,9.5C23.9,80.6,23.8,79.9,24.3,79.6z"/>
	<path class="st4" d="M28.7,76.2c0,0.5-0.5,0.7-0.9,0.5c-1.4-0.8-3.6-2.4-2.5-4.9c1.6-3.5,7.5,0.9,16.3-1.7c5.7-1.7,11.7-4.3,15.2-6
		c0.6-0.3,1.2,0.5,0.6,1c-4,3.5-12.9,9.2-27.6,8.4c-0.2,0-0.3,0-0.5,0.2C28.8,74.4,28.7,75.4,28.7,76.2z"/>
	<path class="st2" d="M27.2,70.1C27.2,70.1,27.2,70.1,27.2,70.1c0.4-0.3,3.1-2.7,4.1-4.1c1-1.4,20.6-0.9,34.9-10
		c0.5-0.3,1.1,0.2,0.9,0.7c-1.8,4.5-9.1,16.8-38,20.4c-0.1,0-0.3,0-0.4-0.1C27.6,76.5,22.3,73.2,27.2,70.1z"/>
	<path class="st5" d="M29.6,69.7C29.6,69.6,29.6,69.6,29.6,69.7c0.3-0.3,2.7-2.4,3.6-3.6c0.9-1.2,18-0.8,30.5-8.8
		c0.4-0.3,0.9,0.2,0.8,0.6c-1.5,3.9-8,14.7-33.2,17.9c-0.1,0-0.2,0-0.3-0.1C29.9,75.2,25.3,72.4,29.6,69.7z"/>
	<path class="st1" d="M68.8,53c0-0.1,0.1-0.1,0.1-0.2c0.3-1.2,2.6-12.7-5.8-17.4c-7.8-4.4-10.2-8.6-6-9.8c0.5-0.2,0.6-0.9,0-1.1
		c-3.1-1.1-9.3-2.3-12.8,3.6c-4,6.8-2.7,12.3-2.2,13.8c0.1,0.3,0,0.6-0.3,0.7c-1.5,0.8-6,3.3-5.5,4.4c0.6,1.3-5.1,3.9-4.2,5.9
		c0.7,1.7,1.4,3.4,1.7,4c0,0.1,0.1,0.2,0,0.4c-0.2,0.7-0.9,3.2-1.5,3.6c-0.7,0.4-4.8,0.9-4.3,1.7l0.4,0.8c0,0.1,0.1,0.1,0.1,0.2
		l2.6,2.3c0.1,0.1,0.3,0.2,0.5,0.1c3-0.4,30.5-4.4,35.9-10.9c0,0,0-0.1,0.1-0.1L68.8,53z"/>
	<path class="st2" d="M57.7,59.1C57.7,59.1,57.7,59.1,57.7,59.1c0.7-0.7,13.2-12.5,8.5-18.1c-4.8-5.8-14.7-8.8-13.1-11.8
		c0.3-0.7,0.7-1.2,1-1.7c0.4-0.6-0.5-1.2-0.9-0.7c-0.4,0.4-0.8,1-1.2,1.6c-3.6,5.6,9.7,9.5,10.5,13.3c0.9,3.8-10.4,19.8-11.8,20.4
		c-1.3,0.5,4.5-1,5.6-1.3c0.1,0,0.2-0.1,0.3-0.2L57.7,59.1z"/>
	<path class="st0" d="M37.8,113.5l1.9,28.5c0,0,1.6,9.4,12.9,9.1s11.6-9.8,11.6-9.8l2.4-28.4L37.8,113.5z"/>
	<line class="st6" x1="42.2" y1="136.7" x2="52.1" y2="146.9"/>
	<line class="st6" x1="42.8" y1="129.5" x2="53.8" y2="140.8"/>
	<line class="st6" x1="41.7" y1="116.9" x2="60.2" y2="136.2"/>
	<line class="st6" x1="52.7" y1="115.2" x2="62.6" y2="125.3"/>
	<line class="st6" x1="61.4" y1="113.9" x2="42.8" y2="132.9"/>
	<line class="st6" x1="51.4" y1="116.8" x2="39.5" y2="128.9"/>
	<line class="st6" x1="63.9" y1="119.9" x2="43" y2="141"/>
	<line class="st6" x1="61.7" y1="130.3" x2="46.2" y2="145.8"/>
</g>
</svg>
